<?xml version="1.0" standalone="no"?>
<!DOCTYPE svg PUBLIC "-//W3C//DTD SVG 20010904//EN"
 "http://www.w3.org/TR/2001/REC-SVG-20010904/DTD/svg10.dtd">
<svg version="1.0" xmlns="http://www.w3.org/2000/svg"
 width="611.000000pt" height="408.000000pt" viewBox="0 0 611.000000 408.000000"
 preserveAspectRatio="xMidYMid meet">

<g transform="translate(0.000000,408.000000) scale(0.100000,-0.100000)"
fill="#000000" stroke="none">
<path d="M2262 3265 c-16 -19 -3 -19 22 0 14 11 16 15 5 15 -8 -1 -20 -7 -27
-15z"/>
<path d="M3995 3260 c10 -11 20 -20 22 -20 2 0 -1 9 -7 20 -6 11 -16 20 -22
20 -6 0 -3 -9 7 -20z"/>
<path d="M3021 3006 c-74 -100 -136 -187 -137 -192 -2 -9 340 -267 360 -271 9
-2 449 579 479 633 7 12 -35 14 -280 14 l-288 -1 -134 -183z"/>
<path d="M2816 2730 l-26 -39 176 -132 c97 -72 182 -133 189 -135 13 -6 68 67
57 77 -19 17 -360 269 -365 269 -2 0 -16 -18 -31 -40z"/>
<path d="M2765 2560 c-47 -64 -144 -151 -201 -181 -39 -21 -44 -27 -39 -49 3
-14 8 -63 12 -110 7 -106 -18 -217 -76 -332 l-38 -77 68 62 c117 107 248 172
366 181 47 3 59 8 61 22 12 71 61 187 109 257 42 61 52 82 41 88 -7 5 -67 49
-133 99 -66 49 -123 90 -127 90 -3 0 -23 -22 -43 -50z m55 -230 c11 -11 20
-29 20 -40 0 -25 -34 -60 -58 -60 -32 0 -62 29 -62 60 0 53 62 78 100 40z"/>
<path d="M3677 1916 c-40 -15 -44 -18 -116 -80 -53 -47 -135 -86 -179 -86 -18
0 -65 13 -103 30 -171 73 -285 63 -495 -41 -127 -63 -196 -70 -310 -34 -15 5
-23 0 -32 -19 -10 -24 -9 -27 19 -41 78 -41 218 -26 342 36 113 57 185 79 255
81 82 1 116 -6 212 -44 123 -49 203 -32 327 69 67 55 118 83 149 83 12 0 48
-14 80 -31 l59 -30 17 21 c17 21 17 23 -5 40 -67 52 -154 71 -220 46z"/>
<path d="M2362 1788 c-18 -18 -14 -46 7 -58 38 -20 71 13 51 51 -12 21 -40 25
-58 7z"/>
<path d="M2262 1534 c10 -10 20 -15 24 -12 3 4 -5 12 -18 18 -22 12 -22 12 -6
-6z"/>
<path d="M3985 1530 c-3 -6 1 -7 9 -4 18 7 21 14 7 14 -6 0 -13 -4 -16 -10z"/>
<path d="M1183 1393 c-7 -2 -13 -9 -13 -14 0 -9 84 -128 213 -301 46 -64 52
-68 88 -68 l39 0 0 190 c0 119 -4 190 -10 191 -5 1 -16 2 -22 3 -7 1 -21 -1
-30 -6 -15 -7 -18 -26 -20 -125 l-3 -118 -84 115 c-103 142 -114 151 -158 133z"/>
<path d="M2287 1393 l-67 -4 2 -192 3 -192 30 0 30 0 3 157 3 157 62 3 c56 3
62 5 65 26 4 30 -15 53 -42 50 -11 -1 -51 -3 -89 -5z"/>
<path d="M2525 1387 c-13 -10 -16 -21 -11 -41 l7 -27 142 3 142 3 3 29 c2 16
-2 32 -10 37 -23 15 -252 11 -273 -4z"/>
<path d="M2893 1389 c-8 -8 -6 -27 9 -70 19 -57 21 -59 54 -59 38 0 41 9 23
75 -15 57 -57 83 -86 54z"/>
<path d="M3123 1388 c-14 -17 -123 -348 -123 -371 0 -15 7 -18 37 -15 l36 3
42 124 c47 141 39 143 91 -19 32 -103 39 -112 77 -108 30 3 31 4 89 192 61
194 62 206 18 206 -29 0 -38 -16 -74 -132 -21 -65 -39 -118 -41 -118 -3 0 -19
46 -36 103 -17 56 -38 112 -45 125 -16 24 -55 30 -71 10z"/>
<path d="M3648 1388 c-15 -12 -118 -246 -118 -269 0 -6 16 -9 37 -7 37 3 38 5
72 85 19 46 38 80 42 75 9 -8 79 -173 79 -184 0 -4 -57 -9 -127 -10 l-128 -3
-9 -28 c-8 -22 -7 -30 4 -37 8 -6 93 -10 188 -10 137 0 174 3 178 14 6 16
-141 367 -159 378 -18 11 -41 10 -59 -4z"/>
<path d="M3953 1392 c-13 -2 -23 -10 -23 -18 0 -14 119 -315 140 -354 12 -23
62 -27 77 -7 11 12 139 330 145 357 2 11 -6 15 -35 15 l-39 0 -53 -135 -53
-135 -15 35 c-23 55 -67 163 -67 166 0 2 24 4 53 6 48 3 52 5 55 31 2 16 -2
29 -10 31 -18 6 -148 12 -175 8z"/>
<path d="M1715 1367 c-45 -25 -95 -109 -95 -161 0 -85 49 -161 121 -190 48
-19 59 -15 59 24 0 24 -7 33 -38 49 -88 45 -84 180 6 223 20 10 28 22 30 46 3
28 0 32 -20 32 -13 0 -41 -10 -63 -23z"/>
<path d="M1835 1371 c-8 -28 2 -45 41 -66 46 -25 68 -67 61 -117 -7 -50 -32
-88 -67 -101 -32 -12 -41 -32 -29 -64 7 -19 12 -21 38 -13 82 23 131 93 131
184 0 30 -5 67 -11 83 -29 78 -147 146 -164 94z"/>
<path d="M2094 1376 c-13 -34 0 -51 44 -54 l42 -3 0 35 c0 35 -1 36 -40 36
-26 0 -43 -5 -46 -14z"/>
<path d="M4392 1358 l3 -33 142 -3 142 -3 7 25 c3 14 3 30 -1 35 -4 7 -60 11
-151 11 l-145 0 3 -32z"/>
<path d="M4838 1374 c-29 -15 -58 -61 -58 -89 0 -29 30 -74 58 -89 15 -8 57
-22 92 -31 36 -9 71 -21 78 -27 23 -20 13 -47 -23 -62 -35 -15 -44 -37 -26
-64 13 -22 85 3 115 39 45 53 30 121 -33 154 -16 8 -58 22 -94 31 -37 9 -72
22 -78 30 -16 19 -4 42 26 54 19 7 25 17 25 40 0 26 -3 30 -27 30 -16 -1 -40
-7 -55 -16z"/>
<path d="M4957 1384 c-18 -18 -6 -54 22 -69 16 -8 33 -24 36 -35 10 -30 69
-24 73 7 7 45 -102 126 -131 97z"/>
<path d="M2514 1215 c-12 -49 6 -56 145 -53 l126 3 3 29 c2 16 -2 32 -10 37
-7 5 -68 9 -135 9 l-123 0 -6 -25z"/>
<path d="M4394 1226 c-3 -8 -4 -25 -2 -38 3 -23 5 -23 133 -23 l130 0 0 35 0
35 -128 3 c-104 2 -128 0 -133 -12z"/>
<path d="M1177 1133 c-4 -3 -7 -33 -7 -65 l0 -59 38 3 c37 3 37 3 40 51 2 27
-2 55 -9 63 -12 14 -51 19 -62 7z"/>
<path d="M4775 1130 c-10 -15 26 -81 55 -101 14 -10 39 -19 55 -21 27 -3 30 0
33 29 3 26 -2 34 -25 45 -15 7 -32 23 -38 36 -7 16 -18 22 -42 22 -17 0 -35
-5 -38 -10z"/>
<path d="M2514 1054 c-11 -45 13 -54 150 -54 67 0 127 4 134 9 8 5 12 21 10
37 l-3 29 -142 3 -142 3 -7 -27z"/>
<path d="M4397 1073 c-4 -3 -7 -19 -7 -34 0 -33 16 -39 100 -35 30 1 85 3 122
4 55 2 68 5 73 21 3 10 3 26 -1 35 -5 14 -25 16 -143 16 -76 0 -141 -3 -144
-7z"/>
</g>
</svg>
