<svg version="1.1" id="Layer_1" xmlns="http://www.w3.org/2000/svg" xmlns:xlink="http://www.w3.org/1999/xlink" x="0px" y="0px"
	 width="100%" viewBox="0 0 512 512" enable-background="new 0 0 512 512" xml:space="preserve">
<path fill="#000000" opacity="1.000000" stroke="none" 
	d="
M127.482269,451.591644 
	C109.589012,439.508209 94.034042,425.448273 79.967827,409.485260 
	C66.766975,394.504303 56.197517,377.899719 47.332005,360.233765 
	C36.939075,339.524170 30.203533,317.531342 26.554497,294.568420 
	C23.961451,278.250702 22.858782,261.848755 23.767258,245.430450 
	C25.431183,215.359421 31.914764,186.365219 44.883980,158.968231 
	C53.019966,141.781219 62.711666,125.613434 74.672958,110.809334 
	C92.176743,89.145447 112.665596,70.935036 136.620224,56.635757 
	C163.472626,40.606697 192.404755,30.400431 223.274017,25.806414 
	C238.749573,23.503315 254.421753,22.772095 270.016541,23.778461 
	C309.215485,26.308056 345.759552,37.431076 379.457245,58.010704 
	C399.103973,70.009209 416.228394,84.887260 431.590820,101.747398 
	C443.772919,115.117142 453.826691,130.133820 462.571686,146.082855 
	C473.606476,166.208069 481.236542,187.493698 485.833710,209.855286 
	C489.960876,229.930832 491.459137,250.347610 490.187042,270.783813 
	C488.518982,297.581268 482.823120,323.609375 472.166260,348.353851 
	C462.923615,369.814484 450.851532,389.567657 435.725037,407.467224 
	C431.200562,412.821136 426.286163,417.747589 421.424896,422.748474 
	C405.317017,439.319153 386.737488,452.460663 366.423370,463.461761 
	C346.816101,474.080139 326.088104,481.326447 304.397736,485.830780 
	C284.160400,490.033417 263.564880,491.527771 242.965424,490.167786 
	C216.709564,488.434418 191.196945,482.986603 166.827484,472.600952 
	C153.182556,466.785828 140.252502,459.751007 127.482269,451.591644 
M251.887161,211.580994 
	C247.234009,211.592987 242.492340,211.027618 237.944244,211.724838 
	C224.117218,213.844543 211.024246,218.580322 197.884460,223.290100 
	C192.014786,225.394028 190.430222,228.975449 190.061050,234.276840 
	C189.842255,237.418793 190.932999,238.826477 194.097855,237.684158 
	C201.177444,235.128845 208.521332,235.495575 215.827774,235.690262 
	C223.608231,235.897568 227.539337,239.261414 229.529877,246.740143 
	C230.888184,251.843552 230.721771,256.998169 229.883041,262.066406 
	C226.872818,280.256714 220.996536,297.733093 216.181473,315.470093 
	C212.015167,330.817230 206.998230,345.922791 207.263824,362.167236 
	C207.459579,374.139191 212.546051,383.207123 222.033524,389.976501 
	C235.589066,399.648468 250.902161,399.618500 266.380524,397.117249 
	C278.083923,395.225983 288.681366,389.662750 299.848541,385.968445 
	C303.987549,384.599152 305.320221,381.712341 306.013550,377.873901 
	C306.824127,373.386353 305.421539,371.500366 301.204803,372.695190 
	C294.677124,374.544861 288.064728,374.474854 281.431152,374.315979 
	C270.823486,374.061920 265.887695,368.788757 265.614258,358.159424 
	C265.346191,347.740112 267.658844,337.752563 270.125854,327.768341 
	C276.120392,303.508148 285.654144,280.140594 288.326996,255.037506 
	C289.287048,246.021088 288.279175,237.404465 283.498077,229.607925 
	C276.496948,218.191208 265.324799,213.722977 251.887161,211.580994 
M285.639587,115.847008 
	C281.077972,114.944626 276.481476,114.777580 271.878723,115.379517 
	C253.094284,117.836098 235.800552,138.905731 246.233994,160.267532 
	C253.453568,175.049149 269.635956,182.340530 286.281067,178.184158 
	C301.563629,174.368042 311.564728,163.098343 312.180511,147.497559 
	C312.720764,133.809540 302.317383,120.206650 285.639587,115.847008 
z"/>
</svg>